#!OML:ASF E:\motion texture\Top Level 1\Subject 1\Session 1\male.ASF
:FULLY-SPECIFIED
:DEGREES
228
root 22.5683 17.92 4.77723 54.3283 -82.9249 -46.4148
lowerback -0.950556 -0.224445 4.86863
upperback -1.6336 -0.355673 3.44106
thorax -1.15226 -0.24543 0.807961
lowerneck -15.3051 -3.4288 -7.73108
upperneck 2.6907 -3.94627 10.0755
head 3.63684 -1.58649 4.06607
rclavicle -6.4605e-016 -3.10104e-014
rhumerus -20.772 22.1083 -101.743
rradius 44.4343
rwrist -40.2428
rhand -3.00563 -60.2735
rfingers 7.12502
rthumb 22.7086 -88.9572
lclavicle -6.4605e-016 -3.10104e-014
lhumerus -18.8121 -32.2664 111.614
lradius 39.2447
lwrist 3.74535
lhand -21.5754 52.133
lfingers 7.12502
lthumb 4.81874 82.0582
rfemur -22.699 0.843572 25.2359
rtibia 19.1197
rfoot -1.43483 -4.53413
rtoes 21.8517
lfemur -13.5179 -3.35875 -8.8631
ltibia 47.8319
lfoot -1.20367 -3.9078
ltoes -17.7705
229
root 22.4647 17.9286 4.75941 56.1198 -82.9884 -48.1362
lowerback -0.912209 -0.249084 4.98513
upperback -1.59796 -0.389412 3.4948
thorax -1.13842 -0.263574 0.798548
lowerneck -15.4996 -3.41578 -7.70423
upperneck 2.95737 -3.93331 10.0261
head 3.74546 -1.5731 4.04616
rclavicle -1.4561e-014 -3.97569e-015
rhumerus -21.4266 22.0818 -101.789
rradius 44.052
rwrist -40.0974
rhand -2.85474 -60.028
rfingers 7.12502
rthumb 22.8534 -88.694
lclavicle -1.4561e-014 -3.97569e-015
lhumerus -19.5614 -32.5055 112.212
lradius 39.0013
lwrist 4.09912
lhand -21.4137 52.0303
lfingers 7.12502
lthumb 4.97489 81.9519
rfemur -22.3892 0.952765 25.491
rtibia 19.0904
rfoot -1.71627 -4.32497
rtoes 21.9406
lfemur -14.261 -3.12096 -8.76719
ltibia 48.5761
lfoot -1.24265 -3.78327
ltoes -17.4514
230
root 22.3619 17.937 4.74231 57.932 -83.0522 -49.8809
lowerback -0.88363 -0.270751 5.09484
upperback -1.56417 -0.419799 3.54528
thorax -1.12095 -0.2799 0.789533
lowerneck -15.6745 -3.40413 -7.6813
upperneck 3.21587 -3.9219 9.97635
head 3.84889 -1.5612 4.02686
rclavicle 2.13694e-015 4.53229e-014
rhumerus -22.0177 22.0997 -101.816
rradius 43.7365
rwrist -39.9871
rhand -2.70352 -59.7907
rfingers 7.12502
rthumb 22.9985 -88.4386
lclavicle 2.13694e-015 4.53229e-014
lhumerus -20.2476 -32.7731 112.766
lradius 38.8198
lwrist 4.4109
lhand -21.2797 51.9455
lfingers 7.12502
lthumb 5.10427 81.864
rfemur -22.068 1.0734 25.7334
rtibia 19.0406
rfoot -1.99101 -4.13845
rtoes 21.9967
lfemur -15.0001 -2.88461 -8.68815
ltibia 49.2533
lfoot -1.33368 -3.64323
ltoes -17.1445
231
root 22.2599 17.9451 4.72597 59.7807 -83.1167 -51.6646
lowerback -0.858921 -0.28839 5.19893
upperback -1.53449 -0.444857 3.59227
thorax -1.10543 -0.293555 0.780073
lowerneck -15.8433 -3.39465 -7.66143
upperneck 3.47664 -3.91295 9.925
head 3.95244 -1.55082 4.00751
rclavicle -2.43511e-015 -2.46493e-014
rhumerus -22.5443 22.1584 -101.823
rradius 43.4862
rwrist -39.9046
rhand -2.55496 -59.5517
rfingers 7.12502
rthumb 23.141 -88.1818
lclavicle -2.43511e-015 -2.46493e-014
lhumerus -20.8704 -33.07 113.275
lradius 38.6995
lwrist 4.68561
lhand -21.1775 51.8363
lfingers 7.12502
lthumb 5.20295 81.7524
rfemur -21.7367 1.20572 25.9645
rtibia 18.9732
rfoot -2.26088 -3.96825
rtoes 22.0276
lfemur -15.7333 -2.64879 -8.62496
ltibia 49.8608
lfoot -1.47495 -3.48736
ltoes -16.8537
232
root 22.1588 17.953 4.71036 61.6588 -83.1813 -53.4808
lowerback -0.84335 -0.302511 5.29707
upperback -1.50607 -0.465848 3.6356
thorax -1.08598 -0.305026 0.770106
lowerneck -16.0003 -3.38702 -7.64569
upperneck 3.73324 -3.9059 9.87354
head 4.05327 -1.54188 3.9888
rclavicle -3.47873e-016 -2.14687e-014
rhumerus -23.0038 22.2611 -101.813
rradius 43.302
rwrist -39.8522
rhand -2.41218 -59.3115
rfingers 7.12502
rthumb 23.278 -87.9244
lclavicle -3.47873e-016 -2.14687e-014
lhumerus -21.4229 -33.3946 113.733
lradius 38.6389
lwrist 4.92511
lhand -21.0883 51.7936
lfingers 7.12502
lthumb 5.28907 81.7075
rfemur -21.3956 1.3477 26.1837
rtibia 18.8905
rfoot -2.52857 -3.81011
rtoes 22.0391
lfemur -16.4582 -2.41572 -8.57733
ltibia 50.3951
lfoot -1.66406 -3.31553
ltoes -16.5804
233
root 22.0585 17.9606 4.69549 63.5497 -83.2444 -55.3147
lowerback -0.832531 -0.313735 5.38956
upperback -1.48035 -0.483165 3.67511
thorax -1.06656 -0.314594 0.759347
lowerneck -16.1454 -3.38152 -7.63302
upperneck 3.9869 -3.90129 9.82093
head 4.1517 -1.53466 3.97016
rclavicle 7.60351e-015 -3.4191e-014
rhumerus -23.3967 22.4054 -101.787
rradius 43.1823
rwrist -39.8272
rhand -2.277 -59.0673
rfingers 7.12502
rthumb 23.4077 -87.6637
lclavicle 7.60351e-015 -3.4191e-014
lhumerus -21.9072 -33.7458 114.139
lradius 38.6367
lwrist 5.12336
lhand -21.0286 51.7828
lfingers 7.12502
lthumb 5.34672 81.6954
rfemur -21.0438 1.49762 26.3909
rtibia 18.7945
rfoot -2.79538 -3.66559
rtoes 22.0273
lfemur -17.1731 -2.18894 -8.54485
ltibia 50.8536
lfoot -1.89733 -3.12776
ltoes -16.3252
